<?xml version="1.0" standalone="no"?>
<!DOCTYPE svg PUBLIC "-//W3C//DTD SVG 20010904//EN"
 "http://www.w3.org/TR/2001/REC-SVG-20010904/DTD/svg10.dtd">
<svg version="1.0" xmlns="http://www.w3.org/2000/svg"
 width="1333.000000pt" height="427.000000pt" viewBox="0 0 1333.000000 427.000000"
 preserveAspectRatio="xMidYMid meet">

<g transform="translate(0.000000,427.000000) scale(0.100000,-0.100000)"
fill="#000000" stroke="none">
<path d="M3311 3948 c-80 -9 -192 -61 -247 -115 -182 -178 -204 -444 -52 -640
l40 -52 -21 -44 c-34 -71 -25 -135 27 -191 15 -16 42 -35 60 -42 18 -8 32 -22
32 -31 0 -9 9 -36 21 -60 22 -45 87 -93 126 -93 15 0 22 -8 26 -29 7 -35 50
-87 88 -106 15 -8 47 -15 71 -15 39 0 45 -3 54 -28 17 -46 77 -85 137 -90 46
-3 58 0 101 30 60 40 106 96 115 138 5 26 14 34 45 45 51 18 94 60 108 107 9
32 18 40 49 49 47 15 96 64 114 115 11 32 19 40 46 46 45 9 104 73 113 123 5
27 24 57 63 99 66 73 86 110 113 210 24 90 25 120 5 205 -53 222 -232 370
-451 373 -123 2 -212 -28 -312 -105 l-53 -40 -27 25 c-96 91 -242 134 -391
116z m223 -131 c29 -13 69 -39 90 -57 l37 -33 -66 -67 -66 -66 68 -66 c37 -36
84 -73 102 -83 44 -22 143 -24 192 -3 l36 16 167 -167 c173 -173 186 -193 149
-233 -35 -39 -61 -25 -190 104 l-123 123 -34 -35 -35 -35 120 -123 c125 -130
140 -159 103 -196 -35 -36 -62 -21 -189 104 -66 66 -126 120 -131 120 -6 0
-23 -14 -39 -30 l-29 -30 127 -128 c71 -72 127 -137 127 -147 0 -26 -39 -65
-64 -65 -12 0 -41 14 -65 30 -32 22 -56 30 -87 30 -38 0 -45 4 -59 29 -19 38
-73 79 -113 87 -24 5 -34 14 -42 40 -17 50 -48 84 -97 105 -36 15 -43 23 -43
47 0 37 -36 91 -78 115 -31 18 -80 23 -151 15 -31 -4 -81 58 -111 139 -32 85
-26 206 14 287 48 99 134 171 233 196 62 15 188 4 247 -23z m705 -1 c71 -37
146 -113 179 -184 23 -49 27 -70 27 -152 0 -89 -2 -99 -33 -155 -18 -33 -44
-73 -58 -89 l-26 -29 -196 196 -197 197 -44 -35 c-35 -28 -52 -35 -89 -35 -47
0 -106 30 -117 59 -6 16 107 136 179 189 76 56 136 73 236 69 68 -3 96 -10
139 -31z m-969 -715 c18 -35 11 -63 -30 -103 -46 -46 -82 -48 -113 -7 -16 22
-17 30 -7 50 35 69 126 105 150 60z m132 -168 c38 -34 11 -105 -52 -138 -37
-19 -42 -19 -68 5 -33 31 -28 66 17 111 42 42 73 49 103 22z m168 -153 c25
-25 25 -48 3 -80 -48 -68 -97 -86 -133 -50 -31 31 -24 58 24 106 48 48 75 55
106 24z m210 -132 c13 -25 13 -30 -3 -60 -20 -36 -49 -61 -84 -72 -17 -5 -29
-1 -48 18 -34 34 -32 49 17 102 34 37 47 44 72 42 21 -2 35 -12 46 -30z"/>
<path d="M7342 2088 l3 -833 22 -66 c43 -126 136 -197 286 -221 58 -9 91 -8
150 2 41 7 80 16 87 20 10 6 10 34 -1 136 l-14 129 -55 1 c-30 0 -65 4 -78 8
-53 18 -52 0 -52 861 l0 795 -175 0 -176 0 3 -832z"/>
<path d="M700 1901 l0 -921 463 0 c416 0 471 2 553 19 209 45 334 145 394 316
28 77 38 240 20 327 -30 156 -138 277 -295 330 -27 9 -51 23 -53 30 -1 8 20
29 47 47 94 60 150 143 171 249 45 226 -69 421 -288 494 -65 21 -84 22 -539
25 l-473 4 0 -920z m855 624 c83 -42 109 -89 110 -200 0 -91 -17 -138 -65
-178 -61 -52 -97 -58 -325 -55 l-210 3 -3 220 c-1 121 0 226 3 233 4 11 44 13
218 10 l212 -3 60 -30z m97 -737 c97 -58 135 -138 126 -272 -8 -113 -47 -174
-143 -218 -48 -22 -60 -23 -310 -23 l-260 0 -3 260 c-1 143 0 266 3 273 4 11
56 13 272 10 l268 -3 47 -27z"/>
<path d="M9722 2153 c4 -657 5 -669 27 -748 68 -242 222 -382 466 -424 114
-20 210 -23 305 -12 156 20 230 45 331 112 74 50 122 107 164 194 71 148 68
117 72 868 l4 677 -105 0 -105 0 -3 -657 -3 -658 -25 -69 c-41 -117 -114 -193
-227 -237 -71 -27 -275 -38 -366 -19 -127 26 -225 100 -273 204 -52 113 -54
148 -54 817 l0 619 -106 0 -105 0 3 -667z"/>
<path d="M4777 2364 c-156 -26 -261 -78 -359 -176 -125 -127 -187 -299 -187
-518 0 -298 120 -521 340 -629 141 -70 302 -93 464 -67 137 22 228 67 315 155
66 67 135 183 128 216 -3 18 -235 146 -252 139 -6 -2 -19 -24 -29 -48 -27 -65
-80 -121 -144 -151 -73 -35 -201 -38 -275 -6 -140 60 -210 220 -194 446 12
171 69 276 180 330 45 22 67 26 138 26 138 0 225 -46 284 -148 10 -18 25 -33
32 -33 11 0 216 133 242 157 11 10 -56 116 -102 163 -79 81 -193 130 -347 149
-101 13 -132 13 -234 -5z"/>
<path d="M6207 2364 c-157 -26 -260 -76 -359 -175 -87 -88 -140 -191 -168
-333 -65 -323 38 -636 256 -781 127 -84 330 -128 497 -106 304 40 479 188 564
476 25 87 25 352 -1 450 -70 267 -253 428 -533 470 -114 17 -150 17 -256 -1z
m270 -306 c58 -21 125 -87 150 -146 8 -20 21 -71 29 -112 33 -184 -4 -372 -89
-460 -55 -57 -125 -82 -226 -82 -167 0 -264 75 -307 237 -18 67 -18 284 0 353
17 62 53 126 93 164 76 73 225 92 350 46z"/>
<path d="M8618 2365 c-212 -34 -367 -143 -460 -321 -68 -132 -95 -298 -78
-476 30 -294 175 -487 429 -568 199 -63 465 -43 611 45 86 52 211 192 210 235
-1 16 -208 150 -233 150 -9 0 -18 -8 -21 -18 -12 -37 -99 -112 -155 -133 -76
-28 -209 -30 -289 -3 -85 28 -151 98 -180 189 -12 39 -23 84 -24 100 l-3 30
449 3 c311 1 453 6 463 13 19 17 18 246 -3 340 -48 219 -187 359 -400 404
-107 22 -219 26 -316 10z m246 -275 c92 -35 156 -132 156 -237 l0 -33 -292 2
-293 3 3 30 c5 50 61 153 102 187 79 67 218 87 324 48z"/>
<path d="M12168 2365 c-116 -23 -225 -90 -303 -187 -21 -27 -43 -47 -49 -45
-7 2 -12 47 -14 115 l-3 112 -99 0 -100 0 2 -967 3 -968 98 -3 97 -3 0 376 c0
360 1 375 19 375 10 0 29 -16 42 -35 29 -43 118 -107 185 -133 85 -33 208 -47
304 -33 254 37 409 180 476 438 23 85 26 120 27 258 1 192 -15 278 -77 410
-61 129 -155 220 -270 262 -52 18 -190 43 -236 42 -19 0 -65 -7 -102 -14z
m212 -191 c175 -58 270 -237 270 -509 0 -201 -67 -378 -169 -449 -76 -53 -136
-69 -258 -69 -109 -1 -113 0 -187 36 -85 43 -132 90 -177 182 -79 162 -78 443
3 614 53 112 154 189 276 211 61 11 185 3 242 -16z"/>
<path d="M2465 2348 c-3 -7 -4 -317 -3 -688 l3 -675 172 -3 172 -2 3 402 c4
344 7 410 21 454 52 158 178 233 342 204 39 -6 76 -13 84 -13 16 -2 28 39 56
191 9 51 15 99 12 106 -7 19 -84 36 -160 36 -132 0 -233 -52 -299 -154 -21
-33 -45 -61 -51 -61 -8 0 -13 33 -15 108 l-3 107 -165 0 c-122 0 -166 -3 -169
-12z"/>
<path d="M3555 2348 c-3 -7 -4 -317 -3 -688 l3 -675 173 -3 172 -2 0 690 0
690 -170 0 c-127 0 -172 -3 -175 -12z"/>
</g>
</svg>
