<?xml version="1.0" encoding="UTF-8"?>
<svg id="Layer_1" data-name="Layer 1" xmlns="http://www.w3.org/2000/svg" xmlns:xlink="http://www.w3.org/1999/xlink" viewBox="0 0 615 258">
  <defs>
    <style>
      .cls-1 {
        fill: url(#linear-gradient-2);
      }

      .cls-2 {
        fill: #fff;
      }

      .cls-3 {
        font-family: FranklinGothic-Heavy, 'Franklin Gothic Heavy';
        font-size: 52px;
        font-weight: 800;
      }

      .cls-4 {
        fill: url(#linear-gradient-6);
      }

      .cls-5 {
        fill: url(#linear-gradient-5);
      }

      .cls-6 {
        fill: none;
      }

      .cls-7 {
        letter-spacing: 0em;
      }

      .cls-8 {
        fill: url(#linear-gradient-7);
      }

      .cls-9 {
        fill: url(#linear-gradient-3);
      }

      .cls-10 {
        fill: url(#linear-gradient);
      }

      .cls-11 {
        fill: url(#linear-gradient-4);
      }

      .cls-12 {
        fill: #fefefe;
      }
    </style>
    <linearGradient id="linear-gradient" x1="121.87" y1="162.87" x2="121.87" y2="71.76" gradientUnits="userSpaceOnUse">
      <stop offset="0" stop-color="#3f53a3"/>
      <stop offset=".24" stop-color="#3242a3"/>
      <stop offset="1" stop-color="#1324a5"/>
    </linearGradient>
    <linearGradient id="linear-gradient-2" x1="192.48" x2="192.48" y2="93.72" xlink:href="#linear-gradient"/>
    <linearGradient id="linear-gradient-3" x1="236.06" x2="236.06" y2="94.99" xlink:href="#linear-gradient"/>
    <linearGradient id="linear-gradient-4" x1="293.39" y1="164.27" x2="293.39" y2="93.59" xlink:href="#linear-gradient"/>
    <linearGradient id="linear-gradient-5" x1="368.51" y1="164.27" x2="368.51" y2="93.59" xlink:href="#linear-gradient"/>
    <linearGradient id="linear-gradient-6" x1="429.21" x2="429.21" xlink:href="#linear-gradient"/>
    <linearGradient id="linear-gradient-7" x1="489.53" y1="164.27" x2="489.53" y2="93.59" xlink:href="#linear-gradient"/>
  </defs>
  <g>
    <path d="m268.4,48.08c-.96-3.76-2.92-6.9-5.95-9.34-2.62-2.1-5.65-3.28-8.98-3.55-2.21-.18-4.44-.02-6.63.66-2.73.87-5.1,2.3-7.13,4.31-.36.39-.55.36-.89.02-.46-.46-.93-.93-1.46-1.34-2.71-2.1-5.76-3.37-9.16-3.64-2.03-.16-4.08-.09-6.06.48-3.71,1.07-6.81,3.1-9.11,6.24-1.59,2.16-2.64,4.6-3.08,7.29-.32,2.05-.34,4.08.05,6.06.5,2.41,1.41,4.69,2.92,6.7.68.87,1.41,1.71,2.12,2.57-3.33,3.23-1.69,9.25,3.37,10.18-.07,1.69.55,3.17,1.66,4.4,1.14,1.25,2.62,1.87,4.31,1.91.11,3.23,3.65,6.33,7.38,5.29.36,1.09.89,2.05,1.75,2.82,2,1.78,4.88,2.16,7.11.62,1.09-.75,2.07-1.73,2.98-2.73.8-.87,1.34-1.91,1.37-3.19.02-.3.16-.57.57-.64.46-.07.96-.16,1.39-.34,2.1-.93,3.46-2.44,3.69-4.81.02-.27.07-.48.46-.5,1.46-.11,2.69-.8,3.69-1.8.96-.98,1.57-2.19,1.64-3.62.02-.11.23-.34.34-.34,1.07,0,1.98-.41,2.82-1.03,1.39-1.03,2.3-2.32,2.51-4.08.05-.55.11-1.07.62-1.53.77-.66,1.46-1.44,2.14-2.23,1.96-2.26,3.19-4.88,3.69-7.84.07-.41.23-.8.34-1.21v-3.58c-.16-.73-.27-1.48-.48-2.21Zm-47.75,22.21c-1.41,1.3-3.33.32-3.6-1.41-.09-.62.23-1.21.68-1.66.48-.5.98-.96,1.46-1.48.46-.48.96-.77,1.64-.64.93-.18,1.59.3,1.94,1.07.36.84.27,1.75-.39,2.46-.52.59-1.14,1.12-1.73,1.66Zm4.97,6.45c-1.03.77-2.07.59-2.92-.41-.71-.84-.62-2.05.21-2.87.64-.62,1.25-1.28,1.96-1.82.71-.57,1.5-.41,2.26,0,.71.39.98,1,1.05,2.05-.16.3-.34.87-.68,1.28-.57.64-1.18,1.25-1.87,1.78Zm7.86,3.67c-.59.68-1.25,1.34-1.98,1.87-1.05.75-2.05.57-2.89-.39-.71-.82-.64-2.05.16-2.85.52-.55,1.12-1.05,1.62-1.64.5-.59,1.75-.75,2.46-.39.71.39,1.28.96,1.16,1.89.07.05.11.07.16.09-.23.48-.36,1.03-.68,1.41Zm7.65,3.51c-.73,1.23-1.69,2.28-3.03,2.87-.07.05-.14.09-.2.09-.14.02-.3.02-.46.02-1.34.05-2.76-1.69-1.73-3.21.64-.93,1.55-1.73,2.46-2.41.71-.55,1.8-.32,2.44.27.64.59.96,1.62.52,2.37Zm16.65-16.58c-.87.91-2.19,1.03-3.19.02-2.64-2.64-5.29-5.29-7.91-7.93-.14-.11-.25-.27-.36-.39-.91.93-1.78,1.8-2.67,2.69l4.85,4.85c1.14,1.14,2.23,2.32,3.39,3.39.87.77.89,2.46.14,3.14-1,.87-2.23.87-3.23-.11-2.6-2.6-5.17-5.17-7.75-7.77q-.52-.52-1.07.02c-.68.68-1.34,1.37-2.03,2.05-.02,0-.02.02-.05.09.14.14.27.3.41.43,2.64,2.64,5.26,5.29,7.93,7.91.89.91.89,2.19.09,3.03-.84.89-2.14,1.03-3.14.07-1.21-1.18-2.71-1.62-4.35-1.64-.3,0-.59.11-.89.09-.16,0-.41-.18-.48-.32-.66-2.03-2.16-3.17-4.12-3.78-.41-.14-.89-.11-1.39-.18-.11-.52-.18-1.12-.41-1.64-.77-1.96-2.23-3.24-4.31-3.74-.41-.09-.55-.18-.52-.59.09-1.23-.3-2.32-1.03-3.3-1.14-1.5-2.6-2.39-4.53-2.48-1.07-.02-2.1.05-3.05.59-.11.05-.36-.05-.46-.14-1.46-1.44-2.57-3.08-3.28-5.01-.46-1.28-.75-2.57-.82-3.94-.18-3.33.75-6.26,2.78-8.88,1.98-2.55,4.58-4.17,7.72-4.74,2.19-.39,4.4-.27,6.56.39,2.35.75,4.31,2,5.92,3.8-1.57,1.57-3.12,3.1-4.69,4.67,1.41,1.39,2.71,2.76,4.08,4.03,1.34,1.25,2.92,2.05,4.78,2.19,1.78.16,3.49-.07,5.06-.98.41-.23.64-.18.98.16,3.62,3.64,7.24,7.27,10.89,10.89.93.93.91,2.23.14,3.05Zm4.28-7.04c-.36.43-.71.84-1.05,1.28-.27.34-.48.32-.8,0-2.14-2.19-4.33-4.35-6.52-6.52-2.26-2.28-4.51-4.53-6.77-6.79-.52-.52-.5-.5-1.05.02-.46.43-.91.89-1.39,1.28-1.82,1.34-4.19,1.28-5.9-.3-.36-.32-.75-.62-1.05-.96-.11-.11-.11-.46-.02-.55,1.78-1.8,3.53-3.64,5.4-5.38,1.87-1.73,4.1-2.94,6.63-3.37,3.03-.5,5.97-.07,8.66,1.53,1.03.62,2,1.32,2.87,2.16,2.03,1.96,3.3,4.37,3.85,7.15.14.71.11,1.44.18,2.16,0,3.14-1.12,5.85-3.05,8.27Z"/>
    <path class="cls-6" d="m257.79,67.33c-.87.91-2.19,1.03-3.19.02-2.64-2.64-5.29-5.29-7.91-7.93-.14-.11-.25-.27-.36-.39-.91.93-1.78,1.8-2.67,2.69l4.85,4.85c1.14,1.14,2.23,2.32,3.39,3.39.87.77.89,2.46.14,3.14-1,.87-2.23.87-3.23-.11-2.6-2.6-5.17-5.17-7.75-7.77q-.52-.52-1.07.02c-.68.68-1.34,1.37-2.03,2.05-.02,0-.02.02-.05.09.14.14.27.3.41.43,2.64,2.64,5.26,5.29,7.93,7.91.89.91.89,2.19.09,3.03-.84.89-2.14,1.03-3.14.07-1.21-1.18-2.71-1.62-4.35-1.64-.3,0-.59.11-.89.09-.16,0-.41-.18-.48-.32-.66-2.03-2.16-3.17-4.12-3.78-.41-.14-.89-.11-1.39-.18-.11-.52-.18-1.12-.41-1.64-.77-1.96-2.23-3.24-4.31-3.74-.41-.09-.55-.18-.52-.59.09-1.23-.3-2.32-1.03-3.3-1.14-1.5-2.6-2.39-4.53-2.48-1.07-.02-2.1.05-3.05.59-.11.05-.36-.05-.46-.14-1.46-1.44-2.57-3.08-3.28-5.01-.46-1.28-.75-2.57-.82-3.94-.18-3.33.75-6.26,2.78-8.88,1.98-2.55,4.58-4.17,7.72-4.74,2.19-.39,4.4-.27,6.56.39,2.35.75,4.31,2,5.92,3.8-1.57,1.57-3.12,3.1-4.69,4.67,1.41,1.39,2.71,2.76,4.08,4.03,1.34,1.25,2.92,2.05,4.78,2.19,1.78.16,3.49-.07,5.06-.98.41-.23.64-.18.98.16,3.62,3.64,7.24,7.27,10.89,10.89.93.93.91,2.23.14,3.05Z"/>
    <path class="cls-2" d="m265.11,52.01c0,3.14-1.11,5.86-3.05,8.28-.34.43-.7.84-1.04,1.28-.27.34-.48.31-.78,0-2.16-2.19-4.34-4.36-6.52-6.53-2.26-2.26-4.51-4.52-6.77-6.77-.52-.52-.51-.51-1.06.02-.45.44-.89.89-1.39,1.27-1.82,1.36-4.19,1.3-5.9-.28-.35-.32-.73-.61-1.05-.96-.1-.11-.1-.45,0-.54,1.78-1.81,3.53-3.66,5.39-5.38,1.88-1.74,4.12-2.94,6.64-3.37,3.03-.52,5.98-.08,8.65,1.52,1.03.61,2.02,1.33,2.87,2.16,2.03,1.96,3.31,4.38,3.85,7.16.14.7.12,1.44.17,2.16Z"/>
    <path class="cls-12" d="m237.45,86.89c-1.35.05-2.76-1.69-1.73-3.21.63-.94,1.55-1.73,2.46-2.42.71-.54,1.8-.31,2.44.29.63.58.96,1.6.52,2.36-.72,1.23-1.68,2.27-3.03,2.88-.07.03-.13.09-.2.1-.15.01-.31,0-.46,0Z"/>
    <path class="cls-12" d="m234.16,78.99c-.22.48-.36,1.03-.69,1.41-.6.69-1.25,1.35-1.99,1.88-1.04.75-2.03.57-2.88-.4-.72-.82-.64-2.04.15-2.84.54-.55,1.13-1.05,1.62-1.64.5-.59,1.75-.76,2.46-.38.72.38,1.28.96,1.18,1.89l.15.07Z"/>
    <path class="cls-12" d="m228.17,73.68c-.16.3-.33.87-.69,1.29-.56.65-1.19,1.25-1.87,1.77-1.02.78-2.08.6-2.92-.41-.69-.83-.61-2.04.21-2.85.64-.63,1.27-1.28,1.96-1.84.71-.57,1.5-.41,2.26,0,.7.38.97,1.01,1.05,2.04Z"/>
    <path class="cls-12" d="m220.84,65.09c.94-.16,1.58.32,1.93,1.08.38.85.29,1.75-.37,2.47-.54.59-1.15,1.11-1.74,1.66-1.4,1.3-3.32.32-3.59-1.42-.1-.62.22-1.2.67-1.66.48-.5.99-.97,1.46-1.47.45-.49.97-.79,1.65-.66Z"/>
  </g>
  <g>
    <path class="cls-10" d="m83.72,162.87v-91.1h46.25c9.61,0,16.62,2.43,21.02,7.27,4.4,4.85,6.61,10.39,6.61,16.62,0,4.54-1.28,8.64-3.84,12.31-2.56,3.67-6.37,6.2-11.45,7.58,11.79,2.85,17.69,9.92,17.69,21.22,0,6.76-2.08,12.8-6.24,18.12-4.16,5.32-13.05,7.98-26.66,7.98h-43.38Zm25.76-56.2h12.95c3.25,0,5.54-.82,6.87-2.47,1.33-1.65,2-3.4,2-5.27,0-5.07-3.11-7.61-9.34-7.61h-12.48v15.35Zm0,35.91h13.62c3.38,0,5.86-.83,7.44-2.5,1.58-1.67,2.37-3.55,2.37-5.64s-.77-4.01-2.3-5.77c-1.54-1.76-4.35-2.64-8.44-2.64h-12.68v16.55Z"/>
    <path class="cls-1" d="m196.12,162.87h-25.5v-67.88h22.16v14.02c2.54-10.19,8.43-15.28,17.69-15.28.93,0,2.22.09,3.87.27v23.69c-1.87-.44-3.54-.67-5.01-.67-8.81,0-13.21,4.92-13.21,14.75v31.1Z"/>
    <path class="cls-9" d="m249.38,94.99v67.88h-26.63v-67.88h26.63Z"/>
    <path class="cls-11" d="m304.31,135.5l22.69,1.94c-1.07,7.92-4.39,14.37-9.98,19.36-5.58,4.98-13,7.48-22.26,7.48-10.37,0-18.79-3.26-25.26-9.78-6.47-6.52-9.71-14.87-9.71-25.06s3.21-18.99,9.64-25.73c6.43-6.74,14.78-10.11,25.06-10.11,9.12,0,16.55,2.55,22.29,7.64,5.74,5.1,9.03,11.54,9.88,19.32l-23.29,1.94c-.98-7.16-3.69-10.75-8.14-10.75-2.85,0-4.93,1.3-6.24,3.9-1.31,2.6-1.97,7.13-1.97,13.58,0,5.56.66,9.68,1.97,12.35,1.31,2.67,3.59,4,6.84,4,4.76,0,7.59-3.36,8.48-10.08Z"/>
    <path class="cls-5" d="m368.04,164.27c-11.26,0-20.2-3.5-26.83-10.51-6.63-7.01-9.94-15.23-9.94-24.66,0-10.14,3.46-18.6,10.38-25.36,6.92-6.76,15.92-10.14,27-10.14s20.14,3.34,26.93,10.01c6.78,6.67,10.18,15.04,10.18,25.1s-3.44,18.61-10.31,25.4c-6.87,6.79-16.01,10.18-27.4,10.18Zm.4-16.15c4.14,0,6.66-2.15,7.58-6.44.91-4.29,1.37-8.78,1.37-13.45,0-6.36-.65-10.95-1.94-13.75-1.29-2.8-3.6-4.2-6.94-4.2-3.07,0-5.32,1.45-6.74,4.34-1.42,2.89-2.14,7.65-2.14,14.28,0,7.79.73,12.94,2.2,15.45,1.47,2.51,3.67,3.77,6.61,3.77Z"/>
    <path class="cls-4" d="m442.33,71.76v91.1h-26.23v-91.1h26.23Z"/>
    <path class="cls-8" d="m501.19,138.51l25.12,1.89c0,6.83-5.51,12.14-11.54,16.84-6.03,4.7-14.18,7.04-24.46,7.04-11.44,0-20.56-3.3-27.36-9.91-6.81-6.61-10.21-14.81-10.21-24.59s3.36-18.71,10.08-25.7c6.72-6.98,15.68-10.48,26.9-10.48s19.63,3.29,26.33,9.88c6.7,6.59,10.04,15.55,10.04,26.9,0,.93-.02,2.23-.07,3.87h-45.45c.09,4.27.84,7.44,2.27,9.51,1.42,2.07,4.14,3.1,8.14,3.1,5.78,0,9.19-2.78,10.21-8.34Zm-1.8-17.62c-.04-4.58-.96-7.66-2.76-9.24-1.8-1.58-4.02-2.37-6.68-2.37-6.3,0-9.44,3.87-9.44,11.61h18.89Z"/>
  </g>
  <text class="cls-3" transform="translate(359.67 207.19)"><tspan class="cls-7" x="0" y="0">F</tspan><tspan x="28.08" y="0">rance</tspan></text>
</svg>